{"asset":{"generator":"glTF-Transform v4.4.0","version":"2.0"},"accessors":[{"type":"VEC3","componentType":5126,"count":24,"max":[0.35422906279563904,0.20252284407615662,2.253599166870117],"min":[-0.35420510172843933,-0.3314523994922638,0.5512999296188354],"bufferView":0,"byteOffset":0},{"type":"VEC3","componentType":5126,"count":24,"bufferView":0,"byteOffset":12},{"type":"VEC2","componentType":5126,"count":24,"bufferView":0,"byteOffset":24},{"type":"SCALAR","componentType":5123,"count":36,"bufferView":1,"byteOffset":0},{"type":"SCALAR","componentType":5123,"count":1224,"bufferView":1,"byteOffset":72},{"type":"SCALAR","componentType":5123,"count":36,"bufferView":1,"byteOffset":2520},{"type":"SCALAR","componentType":5123,"count":744,"bufferView":1,"byteOffset":2592},{"type":"SCALAR","componentType":5123,"count":366,"bufferView":1,"byteOffset":4080},{"type":"VEC3","componentType":5126,"count":816,"max":[1.5995293855667114,0.5063358545303345,3.2650928497314453],"min":[-1.5997267961502075,-0.7808818817138672,-3.893253803253174],"bufferView":2,"byteOffset":0},{"type":"VEC3","componentType":5126,"count":816,"bufferView":2,"byteOffset":12},{"type":"VEC2","componentType":5126,"count":816,"bufferView":2,"byteOffset":24},{"type":"VEC3","componentType":5126,"count":24,"max":[0.33097779750823975,-0.053283482789993286,-0.5913770794868469],"min":[-0.3309778571128845,-0.4751274585723877,-1.5824956893920898],"bufferView":3,"byteOffset":0},{"type":"VEC3","componentType":5126,"count":24,"bufferView":3,"byteOffset":12},{"type":"VEC2","componentType":5126,"count":24,"bufferView":3,"byteOffset":24},{"type":"VEC3","componentType":5126,"count":406,"max":[0.781030535697937,0.48277759552001953,1.8834819793701172],"min":[-0.7808820009231567,-0.7808818817138672,-3.576046943664551],"bufferView":4,"byteOffset":0},{"type":"VEC3","componentType":5126,"count":406,"bufferView":4,"byteOffset":12},{"type":"VEC2","componentType":5126,"count":406,"bufferView":4,"byteOffset":24},{"type":"VEC3","componentType":5126,"count":242,"max":[1.2641775608062744,0.5064439177513123,2.506472587585449],"min":[-1.2640650272369385,-0.42414695024490356,-3.1151609420776367],"bufferView":5,"byteOffset":0},{"type":"VEC3","componentType":5126,"count":242,"bufferView":5,"byteOffset":12},{"type":"VEC2","componentType":5126,"count":242,"bufferView":5,"byteOffset":24}],"bufferViews":[{"buffer":0,"byteOffset":0,"byteLength":768,"byteStride":32,"target":34962},{"buffer":0,"byteOffset":768,"byteLength":4812,"target":34963},{"buffer":0,"byteOffset":5580,"byteLength":26112,"byteStride":32,"target":34962},{"buffer":0,"byteOffset":31692,"byteLength":768,"byteStride":32,"target":34962},{"buffer":0,"byteOffset":32460,"byteLength":12992,"byteStride":32,"target":34962},{"buffer":0,"byteOffset":45452,"byteLength":7744,"byteStride":32,"target":34962}],"buffers":[{"uri":"data:application/octet-stream;base64,","byteLength":53196}],"materials":[{"name":"Cockpit","doubleSided":true,"pbrMetallicRoughness":{"baseColorFactor":[0.009049390442669392,0.01064073946326971,0.01108749583363533,1],"roughnessFactor":0,"metallicFactor":0.8217821717262268}},{"name":"Chassis","doubleSided":true,"pbrMetallicRoughness":{"baseColorFactor":[0,0,0,1],"roughnessFactor":0.7522123456001282}},{"name":"Engine Glow","doubleSided":true,"pbrMetallicRoughness":{"baseColorFactor":[0.001870652660727501,0.8000000715255737,0.8000000715255737,1],"roughnessFactor":0.5,"metallicFactor":0},"emissiveFactor":[0,1,1]},{"name":"Gray Metal","doubleSided":true,"pbrMetallicRoughness":{"baseColorFactor":[0.013410485349595547,0.013410485349595547,0.013410485349595547,1],"roughnessFactor":0.787610650062561,"metallicFactor":0.5707964301109314}},{"name":"Chassis 2","doubleSided":true,"pbrMetallicRoughness":{"baseColorFactor":[0.7642737030982971,0.7294957041740417,0.8000000715255737,1],"roughnessFactor":0.5,"metallicFactor":0},"emissiveFactor":[0.07498929500749796,1,1]}],"meshes":[{"name":"Ship Body","primitives":[{"attributes":{"POSITION":0,"NORMAL":1,"TEXCOORD_0":2},"mode":4,"material":0,"indices":3},{"attributes":{"POSITION":8,"NORMAL":9,"TEXCOORD_0":10},"mode":4,"material":1,"indices":4},{"attributes":{"POSITION":11,"NORMAL":12,"TEXCOORD_0":13},"mode":4,"material":2,"indices":5},{"attributes":{"POSITION":14,"NORMAL":15,"TEXCOORD_0":16},"mode":4,"material":3,"indices":6},{"attributes":{"POSITION":17,"NORMAL":18,"TEXCOORD_0":19},"mode":4,"material":4,"indices":7}]}],"nodes":[{"name":"Ship","translation":[0,0.867340087890625,0],"scale":[-1,1,1],"mesh":0}],"scenes":[{"name":"Scene","nodes":[0]}],"scene":0}